<?xml version="1.0" standalone="no"?>
<!DOCTYPE svg PUBLIC "-//W3C//DTD SVG 20010904//EN"
 "http://www.w3.org/TR/2001/REC-SVG-20010904/DTD/svg10.dtd">
<svg version="1.0" xmlns="http://www.w3.org/2000/svg"
 width="1080.000000pt" height="1080.000000pt" viewBox="0 0 1080.000000 1080.000000"
 preserveAspectRatio="xMidYMid meet">
<metadata>
Created by potrace 1.14, written by Peter Selinger 2001-2017
</metadata>
<g transform="translate(0.000000,1080.000000) scale(0.100000,-0.100000)"
fill="#000000" stroke="none">
<path d="M0 5400 l0 -5400 5400 0 5400 0 0 5400 0 5400 -5400 0 -5400 0 0
-5400z m8150 2165 l0 -225 -2325 0 -2325 0 0 -1840 0 -1840 880 0 880 0 0
-335 0 -335 -1425 0 -1425 0 0 335 0 335 325 0 325 0 0 1868 c0 2062 -4 1929
63 2041 64 107 194 195 311 210 33 5 1108 9 2389 10 l2327 1 0 -225z m-52
-685 c132 -17 247 -92 290 -189 16 -33 17 -177 20 -1691 2 -1044 -1 -1678 -7
-1719 -14 -92 -47 -148 -120 -203 -115 -89 -30 -83 -1261 -83 -1059 0 -1086 0
-1125 20 -90 45 -157 144 -175 262 -7 46 -10 605 -8 1728 l3 1660 21 46 c43
93 118 153 213 169 68 11 2062 11 2149 0z"/>
<path d="M6160 5050 l0 -1390 900 0 900 0 0 1390 0 1390 -900 0 -900 0 0
-1390z"/>
</g>
</svg>
